<svg xmlns="http://www.w3.org/2000/svg" version="1.0"
     viewBox="0 0 448 448" width="100" height="100" preserveAspectRatio="xMidYMid meet">

    <g transform="translate(0.000000,448.000000) scale(0.100000,-0.100000)" fill="#000000" stroke="none">
        <path d="M3350 3994 c-202 -24 -335 -55 -464 -108 -318 -132 -536 -369 -617 -671 -32 -116 -32 -346 0 -460 95 -347 375 -592 910 -797 179 -68 312 -132 383 -184 112 -83 165 -189 156 -313 -19 -254 -269 -382 -664 -341 -194 20 -436 90 -604 175 -29 15 -54 25 -56 22 -2 -2 -36 -136 -75 -298 -38 -162 -72 -302 -75 -311 -9 -30 187 -111 392 -162 196 -49 303 -61 534 -60 314 2 515 42 735 148 291 140 471 357 547 663 18 73 22 115 22 248 -1 139 -4 173 -26 256 -63 235 -199 412 -433 565 -106 69 -211 121 -413 203 -477 196 -585 283 -585 473 0 206 182 328 488 328 199 0 381 -40 562 -125 l93 -43 20 66 c10 37 53 179 94 317 42 137 72 253 68 256 -16 15 -174 69 -272 93 -58 14 -152 33 -210 41 -102 15 -439 28 -510 19z"/>
        <path d="M960 2802 c0 -699 -4 -1149 -10 -1202 -36 -298 -154 -440 -393 -472 -102 -14 -268 0 -391 32 -44 11 -80 19 -81 18 -2 -2 -19 -129 -39 -283 -20 -154 -39 -292 -42 -307 -5 -25 -2 -28 45 -42 28 -8 108 -25 178 -37 170 -30 476 -33 628 -5 547 98 837 444 894 1066 7 73 11 527 11 1233 l0 1117 -400 0 -400 0 0 -1118z"/>
    </g>
</svg>