<!--<svg viewBox="0 0 128 128">-->
<!--    <g fill="black">-->
<!--        <circle cx="64" cy="64" r="11.4"/>-->
<!--        <path d="M107.3 45.2c-2.2-.8-4.5-1.6-6.9-2.3.6-2.4 1.1-4.8 1.5-7.1 2.1-13.2-.2-22.5-6.6-26.1-1.9-1.1-4-1.6-6.4-1.6-7 0-15.9 5.2-24.9 13.9-9-8.7-17.9-13.9-24.9-13.9-2.4 0-4.5.5-6.4 1.6-6.4 3.7-8.7 13-6.6 26.1.4 2.3.9 4.7 1.5 7.1-2.4.7-4.7 1.4-6.9 2.3C8.2 50 1.4 56.6 1.4 64s6.9 14 19.3 18.8c2.2.8 4.5 1.6 6.9 2.3-.6 2.4-1.1 4.8-1.5 7.1-2.1 13.2.2 22.5 6.6 26.1 1.9 1.1 4 1.6 6.4 1.6 7.1 0 16-5.2 24.9-13.9 9 8.7 17.9 13.9 24.9 13.9 2.4 0 4.5-.5 6.4-1.6 6.4-3.7 8.7-13 6.6-26.1-.4-2.3-.9-4.7-1.5-7.1 2.4-.7 4.7-1.4 6.9-2.3 12.5-4.8 19.3-11.4 19.3-18.8s-6.8-14-19.3-18.8zM92.5 14.7c4.1 2.4 5.5 9.8 3.8 20.3-.3 2.1-.8 4.3-1.4 6.6-5.2-1.2-10.7-2-16.5-2.5-3.4-4.8-6.9-9.1-10.4-13 7.4-7.3 14.9-12.3 21-12.3 1.3 0 2.5.3 3.5.9zM81.3 74c-1.8 3.2-3.9 6.4-6.1 9.6-3.7.3-7.4.4-11.2.4-3.9 0-7.6-.1-11.2-.4-2.2-3.2-4.2-6.4-6-9.6-1.9-3.3-3.7-6.7-5.3-10 1.6-3.3 3.4-6.7 5.3-10 1.8-3.2 3.9-6.4 6.1-9.6 3.7-.3 7.4-.4 11.2-.4 3.9 0 7.6.1 11.2.4 2.2 3.2 4.2 6.4 6 9.6 1.9 3.3 3.7 6.7 5.3 10-1.7 3.3-3.4 6.6-5.3 10zm8.3-3.3c1.5 3.5 2.7 6.9 3.8 10.3-3.4.8-7 1.4-10.8 1.9 1.2-1.9 2.5-3.9 3.6-6 1.2-2.1 2.3-4.2 3.4-6.2zM64 97.8c-2.4-2.6-4.7-5.4-6.9-8.3 2.3.1 4.6.2 6.9.2 2.3 0 4.6-.1 6.9-.2-2.2 2.9-4.5 5.7-6.9 8.3zm-18.6-15c-3.8-.5-7.4-1.1-10.8-1.9 1.1-3.3 2.3-6.8 3.8-10.3 1.1 2 2.2 4.1 3.4 6.1 1.2 2.2 2.4 4.1 3.6 6.1zm-7-25.5c-1.5-3.5-2.7-6.9-3.8-10.3 3.4-.8 7-1.4 10.8-1.9-1.2 1.9-2.5 3.9-3.6 6-1.2 2.1-2.3 4.2-3.4 6.2zM64 30.2c2.4 2.6 4.7 5.4 6.9 8.3-2.3-.1-4.6-.2-6.9-.2-2.3 0-4.6.1-6.9.2 2.2-2.9 4.5-5.7 6.9-8.3zm22.2 21l-3.6-6c3.8.5 7.4 1.1 10.8 1.9-1.1 3.3-2.3 6.8-3.8 10.3-1.1-2.1-2.2-4.2-3.4-6.2zM31.7 35c-1.7-10.5-.3-17.9 3.8-20.3 1-.6 2.2-.9 3.5-.9 6 0 13.5 4.9 21 12.3-3.5 3.8-7 8.2-10.4 13-5.8.5-11.3 1.4-16.5 2.5-.6-2.3-1-4.5-1.4-6.6zM7 64c0-4.7 5.7-9.7 15.7-13.4 2-.8 4.2-1.5 6.4-2.1 1.6 5 3.6 10.3 6 15.6-2.4 5.3-4.5 10.5-6 15.5C15.3 75.6 7 69.6 7 64zm28.5 49.3c-4.1-2.4-5.5-9.8-3.8-20.3.3-2.1.8-4.3 1.4-6.6 5.2 1.2 10.7 2 16.5 2.5 3.4 4.8 6.9 9.1 10.4 13-7.4 7.3-14.9 12.3-21 12.3-1.3 0-2.5-.3-3.5-.9zM96.3 93c1.7 10.5.3 17.9-3.8 20.3-1 .6-2.2.9-3.5.9-6 0-13.5-4.9-21-12.3 3.5-3.8 7-8.2 10.4-13 5.8-.5 11.3-1.4 16.5-2.5.6 2.3 1 4.5 1.4 6.6zm9-15.6c-2 .8-4.2 1.5-6.4 2.1-1.6-5-3.6-10.3-6-15.6 2.4-5.3 4.5-10.5 6-15.5 13.8 4 22.1 10 22.1 15.6 0 4.7-5.8 9.7-15.7 13.4z"/>-->
<!--    </g>-->
<!--</svg>-->

<svg viewBox="0 0 24 24" xmlns="http://www.w3.org/2000/svg" fill="#000000" style="transform: scale(1.3)">
    <g id="SVGRepo_bgCarrier" stroke-width="0"></g>
    <g id="SVGRepo_tracerCarrier" stroke-linecap="round" stroke-linejoin="round"></g>
    <g id="SVGRepo_iconCarrier">
        <title>react</title>
        <rect width="32" height="32" fill="none"></rect>
        <path d="M12,10.11A1.87,1.87,0,1,1,10.13,12,1.88,1.88,0,0,1,12,10.11M7.37,20c.63.38,2-.2,3.6-1.7a24.22,24.22,0,0,1-1.51-1.9A22.7,22.7,0,0,1,7.06,16c-.51,2.14-.32,3.61.31,4m.71-5.74-.29-.51a7.91,7.91,0,0,0-.29.86c.27.06.57.11.88.16l-.3-.51m6.54-.76.81-1.5-.81-1.5c-.3-.53-.62-1-.91-1.47C13.17,9,12.6,9,12,9s-1.17,0-1.71,0c-.29.47-.61.94-.91,1.47L8.57,12l.81,1.5c.3.53.62,1,.91,1.47.54,0,1.11,0,1.71,0s1.17,0,1.71,0c.29-.47.61-.94.91-1.47M12,6.78c-.19.22-.39.45-.59.72h1.18c-.2-.27-.4-.5-.59-.72m0,10.44c.19-.22.39-.45.59-.72H11.41c.2.27.4.5.59.72M16.62,4c-.62-.38-2,.2-3.59,1.7a24.22,24.22,0,0,1,1.51,1.9,22.7,22.7,0,0,1,2.4.36c.51-2.14.32-3.61-.32-4m-.7,5.74.29.51a7.91,7.91,0,0,0,.29-.86c-.27-.06-.57-.11-.88-.16l.3.51m1.45-7c1.47.84,1.63,3.05,1,5.63,2.54.75,4.37,2,4.37,3.68s-1.83,2.93-4.37,3.68c.62,2.58.46,4.79-1,5.63s-3.45-.12-5.37-1.95c-1.92,1.83-3.91,2.79-5.38,1.95s-1.62-3-1-5.63c-2.54-.75-4.37-2-4.37-3.68S3.08,9.07,5.62,8.32c-.62-2.58-.46-4.79,1-5.63s3.46.12,5.38,1.95c1.92-1.83,3.91-2.79,5.37-1.95M17.08,12A22.51,22.51,0,0,1,18,14.26c2.1-.63,3.28-1.53,3.28-2.26S20.07,10.37,18,9.74A22.51,22.51,0,0,1,17.08,12M6.92,12A22.51,22.51,0,0,1,6,9.74c-2.1.63-3.28,1.53-3.28,2.26S3.93,13.63,6,14.26A22.51,22.51,0,0,1,6.92,12m9,2.26-.3.51c.31,0,.61-.1.88-.16a7.91,7.91,0,0,0-.29-.86l-.29.51M13,18.3c1.59,1.5,3,2.08,3.59,1.7s.83-1.82.32-4a22.7,22.7,0,0,1-2.4.36A24.22,24.22,0,0,1,13,18.3M8.08,9.74l.3-.51c-.31,0-.61.1-.88.16a7.91,7.91,0,0,0,.29.86l.29-.51M11,5.7C9.38,4.2,8,3.62,7.37,4s-.82,1.82-.31,4a22.7,22.7,0,0,1,2.4-.36A24.22,24.22,0,0,1,11,5.7Z"></path>
    </g>
</svg>