<svg version="1.0" xmlns="http://www.w3.org/2000/svg"
     width="512.000000pt" height="512.000000pt" viewBox="0 0 512.000000 512.000000"
     preserveAspectRatio="xMidYMid meet">
    <g transform="translate(0.000000,512.000000) scale(0.100000,-0.100000)"
       stroke="none">
        <path d="M106 5078 c33 -98 61 -119 113 -86 30 19 81 92 81 116 0 8 -32 12
-105 12 l-104 0 15 -42z"/>
        <path d="M384 5058 c-60 -98 -140 -266 -163 -343 -11 -38 -30 -124 -41 -190
-12 -65 -34 -152 -51 -193 -16 -40 -29 -75 -29 -78 0 -2 9 -4 20 -4 30 0 50
40 81 159 48 190 126 346 248 496 37 46 65 94 83 142 l27 73 -68 0 -68 0 -39
-62z"/>
        <path d="M820 5110 c0 -5 9 -10 19 -10 11 0 23 5 26 10 4 6 -5 10 -19 10 -14
0 -26 -4 -26 -10z"/>
        <path d="M987 5113 c-4 -3 -7 -23 -7 -43 0 -78 -21 -148 -78 -260 -54 -105
-140 -335 -130 -346 8 -7 140 153 201 244 32 48 87 146 122 217 34 72 74 141
89 154 14 14 26 28 26 33 0 10 -214 11 -223 1z"/>
        <path d="M1424 5093 c-4 -15 -2 -58 4 -95 20 -117 15 -186 -28 -362 -22 -90
-40 -171 -40 -180 0 -66 151 70 207 187 67 137 67 284 0 411 l-32 61 -52 3
c-50 3 -53 2 -59 -25z"/>
        <path d="M1777 5092 c-50 -52 -33 -76 58 -87 73 -8 138 13 230 75 l60 40 -161
0 -160 0 -27 -28z"/>
        <path d="M2160 5070 c-80 -61 -147 -97 -270 -145 -52 -21 -110 -48 -128 -62
-96 -72 -77 -193 31 -193 87 0 316 79 354 123 18 20 18 20 -17 14 -74 -12
-155 -19 -148 -12 3 4 49 26 102 50 145 65 292 154 360 217 l61 57 -140 0
-140 0 -65 -49z"/>
        <path d="M2592 5090 c-159 -87 -299 -201 -286 -233 18 -49 107 2 217 123 31
35 78 79 104 97 59 42 60 43 37 43 -10 0 -43 -13 -72 -30z"/>
        <path d="M2800 5101 c-16 -30 -12 -69 8 -80 23 -12 65 7 122 59 l45 40 -82 0
c-71 0 -84 -3 -93 -19z"/>
        <path d="M2962 5056 c-83 -78 -125 -152 -126 -217 -1 -52 16 -79 50 -79 29 0
45 24 80 120 35 99 59 146 101 198 l34 42 -35 0 c-30 0 -46 -10 -104 -64z"/>
        <path d="M3140 5078 c-23 -32 -30 -51 -28 -77 3 -32 7 -36 48 -49 64 -19 199
-10 273 18 68 25 173 95 195 128 l14 22 -236 0 -236 0 -30 -42z"/>
        <path d="M3745 5083 c-29 -44 -33 -83 -8 -83 15 0 203 108 203 116 0 2 -38 4
-85 4 l-84 0 -26 -37z"/>
        <path d="M4010 5099 c-17 -31 12 -71 48 -67 30 3 59 46 49 71 -10 26 -83 23
-97 -4z"/>
        <path d="M4176 5104 c-10 -25 -2 -27 51 -15 80 19 86 31 17 31 -48 0 -63 -4
-68 -16z"/>
        <path d="M4386 5107 c-14 -10 -17 -21 -12 -41 5 -22 12 -27 33 -24 34 4 52 31
37 56 -15 22 -35 26 -58 9z"/>
        <path d="M4559 5075 c-11 -24 -29 -79 -39 -121 -32 -125 -26 -144 40 -117 41
17 86 57 106 95 18 35 18 109 0 153 -13 31 -19 35 -51 35 -33 0 -38 -4 -56
-45z"/>
        <path d="M4740 5100 c0 -27 35 -60 63 -60 29 0 57 29 57 58 0 20 -5 22 -60 22
-53 0 -60 -2 -60 -20z"/>
        <path d="M4977 5098 c-8 -13 -33 -57 -57 -98 -27 -47 -83 -116 -150 -185 -130
-135 -195 -225 -161 -225 12 0 341 238 405 292 67 58 74 87 45 175 -18 53 -25
63 -45 63 -14 0 -29 -9 -37 -22z"/>
        <path d="M1334 5089 c-8 -14 11 -33 25 -25 6 4 11 14 11 22 0 16 -26 19 -36 3z"/>
        <path d="M645 5071 c-17 -10 -39 -31 -49 -47 -11 -16 -49 -69 -86 -119 -108
-146 -220 -346 -220 -396 0 -23 29 -25 68 -5 30 16 92 79 168 171 27 33 83 96
125 141 115 123 144 200 94 249 -29 30 -59 32 -100 6z"/>
        <path d="M1233 5006 c-43 -48 -83 -123 -147 -273 -71 -167 -72 -213 -6 -213
34 0 159 61 187 91 61 66 83 183 58 302 -28 136 -42 151 -92 93z"/>
        <path d="M2645 5003 c-128 -86 -219 -191 -270 -313 -43 -100 -71 -155 -107
-208 -17 -24 -28 -45 -26 -47 6 -6 251 153 314 206 165 136 252 309 188 373
-23 23 -54 20 -99 -11z"/>
        <path d="M4286 5023 c-31 -8 -214 -117 -298 -178 -85 -61 -138 -123 -138 -162
0 -12 3 -23 6 -23 3 0 42 27 87 59 45 32 134 89 197 127 123 72 194 132 188
160 -3 19 -14 24 -42 17z"/>
        <path d="M886 4985 c-68 -89 -129 -282 -109 -349 8 -29 10 -25 26 52 9 45 39
137 67 203 29 66 50 123 47 125 -2 3 -16 -11 -31 -31z"/>
        <path d="M3880 5003 c-89 -60 -180 -157 -180 -192 0 -22 40 -33 75 -21 39 13
173 98 204 129 61 61 -25 134 -99 84z"/>
        <path d="M2 4916 c-1 -51 2 -86 7 -80 4 5 5 45 1 89 l-7 80 -1 -89z"/>
        <path d="M1681 4966 c-16 -19 -6 -36 20 -36 15 0 20 6 17 22 -4 27 -21 33 -37
14z"/>
        <path d="M3505 4961 c-74 -21 -85 -27 -85 -49 0 -24 55 -55 82 -47 28 10 108
84 108 101 0 18 -31 17 -105 -5z"/>
        <path d="M4801 4962 c-8 -15 -7 -23 5 -33 13 -10 17 -10 25 2 5 8 8 20 6 28
-3 23 -25 24 -36 3z"/>
        <path d="M3700 4939 c-120 -82 -207 -202 -217 -302 -4 -41 -2 -56 11 -66 15
-12 21 -11 44 6 40 29 83 98 120 191 18 45 48 103 67 128 33 43 45 74 28 74
-5 0 -28 -14 -53 -31z"/>
        <path d="M4334 4926 c-28 -28 -44 -52 -44 -68 0 -30 38 -68 67 -68 51 0 94
120 58 160 -25 28 -32 26 -81 -24z"/>
        <path d="M4695 4934 c-26 -26 -48 -64 -42 -71 11 -10 77 47 77 68 0 23 -13 24
-35 3z"/>
        <path d="M143 4869 c-35 -22 -43 -39 -19 -39 30 0 63 19 69 39 7 27 -9 27 -50
0z"/>
        <path d="M3142 4855 c-82 -38 -293 -188 -281 -199 8 -9 140 34 204 67 146 73
186 112 153 145 -16 16 -14 16 -76 -13z"/>
        <path d="M5060 4850 c0 -11 7 -20 15 -20 8 0 15 9 15 20 0 11 -7 20 -15 20 -8
0 -15 -9 -15 -20z"/>
        <path d="M3370 4835 c-57 -21 -311 -158 -376 -202 -120 -82 -197 -202 -178
-277 12 -49 31 -41 116 47 80 82 88 87 252 166 192 93 248 130 270 176 21 44
20 61 -4 85 -23 23 -32 24 -80 5z"/>
        <path d="M4158 4797 c-35 -19 -91 -53 -124 -77 -67 -50 -174 -149 -174 -162 0
-26 134 6 235 56 78 38 195 138 195 165 0 22 -30 51 -53 51 -8 0 -44 -15 -79
-33z"/>
        <path d="M4960 4759 c-55 -34 -130 -100 -130 -115 0 -26 38 -36 88 -24 57 14
74 26 95 67 20 38 22 64 5 81 -16 16 -17 16 -58 -9z"/>
        <path d="M65 4763 c-47 -12 -65 -34 -65 -79 0 -24 1 -44 3 -44 14 0 152 61
155 68 4 14 -30 50 -53 55 -11 2 -29 2 -40 0z"/>
        <path d="M4516 4745 c-28 -26 -32 -40 -14 -51 13 -8 58 39 58 62 0 20 -13 17
-44 -11z"/>
        <path d="M2240 4735 c0 -8 7 -15 15 -15 8 0 15 7 15 15 0 8 -7 15 -15 15 -8 0
-15 -7 -15 -15z"/>
        <path d="M4317 4733 c-11 -10 -8 -41 4 -48 12 -8 49 23 49 42 0 13 -41 18 -53
6z"/>
        <path d="M5105 4731 c-3 -5 -1 -12 5 -16 5 -3 10 1 10 9 0 18 -6 21 -15 7z"/>
        <path d="M3690 4700 c-30 -32 -58 -116 -44 -130 19 -19 144 66 144 99 0 26
-29 61 -52 61 -11 0 -32 -13 -48 -30z"/>
        <path d="M596 4645 c-20 -30 -36 -59 -36 -63 0 -17 142 -94 152 -84 6 6 9 37
6 70 -3 46 -11 69 -32 96 -15 20 -33 36 -40 36 -7 0 -30 -25 -50 -55z"/>
        <path d="M2124 4676 c-122 -57 -256 -226 -256 -322 0 -123 85 -125 225 -6 98
84 167 197 167 275 0 73 -52 93 -136 53z"/>
        <path d="M2711 4680 c-17 -10 -7 -40 14 -40 8 0 15 9 15 19 0 24 -12 32 -29
21z"/>
        <path d="M5086 4627 c-25 -25 -105 -251 -93 -263 3 -4 33 11 67 32 l60 39 0
108 c0 59 -2 107 -5 107 -3 0 -16 -10 -29 -23z"/>
        <path d="M48 4611 l-48 -16 0 -97 c0 -54 3 -98 8 -98 4 1 27 11 52 23 51 25
57 40 59 145 1 69 2 69 -71 43z"/>
        <path d="M4354 4594 c-61 -32 -82 -52 -147 -134 -29 -36 -94 -114 -145 -173
-51 -60 -91 -114 -89 -120 11 -32 129 13 252 96 104 70 235 178 261 216 28 41
31 87 8 119 -21 31 -78 29 -140 -4z"/>
        <path d="M1740 4595 c-20 -24 -8 -50 24 -50 36 0 56 26 37 49 -17 20 -45 21
-61 1z"/>
        <path d="M3315 4590 c-39 -25 -39 -46 -1 -42 35 4 76 30 76 48 0 20 -40 17
-75 -6z"/>
        <path d="M2620 4574 c0 -9 5 -14 12 -12 18 6 21 28 4 28 -9 0 -16 -7 -16 -16z"/>
        <path d="M4919 4586 c-2 -3 -63 -14 -134 -26 -160 -26 -228 -55 -252 -104 -13
-29 -14 -40 -5 -61 6 -14 19 -25 27 -25 21 0 158 70 290 147 128 76 124 73 98
73 -11 0 -22 -2 -24 -4z"/>
        <path d="M3754 4549 c-10 -17 13 -36 27 -22 12 12 4 33 -11 33 -5 0 -12 -5
-16 -11z"/>
        <path d="M2675 4502 c-38 -21 -118 -68 -177 -104 -58 -37 -192 -110 -298 -163
-105 -53 -189 -99 -186 -102 11 -11 120 34 281 117 206 106 244 119 145 49
-84 -60 -190 -159 -190 -177 0 -7 6 -12 13 -12 14 0 133 79 201 134 22 17 80
58 129 91 79 53 94 68 128 128 22 38 39 71 39 73 0 9 -18 2 -85 -34z"/>
        <path d="M3380 4523 c-65 -24 -260 -206 -297 -276 -18 -36 -5 -77 26 -77 10 0
68 44 129 99 60 54 136 118 168 143 33 25 67 55 77 66 17 18 17 21 2 36 -16
16 -73 21 -105 9z"/>
        <path d="M4098 4514 c-28 -15 -45 -54 -33 -74 10 -16 75 48 75 72 0 22 -6 22
-42 2z"/>
        <path d="M474 4501 c-38 -23 -74 -72 -74 -100 0 -26 45 -74 63 -68 16 5 69
136 65 161 -4 27 -18 29 -54 7z"/>
        <path d="M1253 4497 c-12 -12 -42 -58 -68 -102 -26 -44 -76 -113 -111 -153
-36 -41 -63 -79 -61 -86 7 -20 85 -19 120 3 39 24 96 97 133 171 51 101 41
226 -13 167z"/>
        <path d="M4931 4497 c-70 -28 -82 -47 -55 -83 32 -44 50 -51 73 -30 19 17 47
105 39 125 -1 6 -27 0 -57 -12z"/>
        <path d="M1010 4486 c-19 -6 -84 -49 -144 -93 -72 -54 -173 -114 -299 -179
-202 -104 -330 -182 -340 -207 -31 -80 279 -19 520 104 134 68 313 189 362
245 86 98 27 176 -99 130z"/>
        <path d="M3787 4479 c-27 -16 -57 -87 -57 -136 0 -23 11 -84 25 -135 14 -51
25 -108 25 -126 0 -45 17 -38 57 22 41 59 73 162 73 229 0 62 -30 129 -66 145
-30 14 -34 14 -57 1z"/>
        <path d="M3572 4453 c-22 -16 -85 -67 -140 -115 -129 -113 -158 -172 -112
-231 67 -85 234 3 310 165 79 167 51 254 -58 181z"/>
        <path d="M1710 4450 c-16 -16 -20 -33 -20 -88 0 -85 15 -112 53 -95 42 19 55
97 30 186 -6 23 -38 22 -63 -3z"/>
        <path d="M3016 4423 c-55 -43 -138 -149 -134 -172 2 -9 16 -20 32 -26 23 -8
30 -6 42 10 8 11 46 52 84 92 69 70 82 97 58 121 -19 19 -31 15 -82 -25z"/>
        <path d="M595 4421 c-49 -22 -73 -48 -81 -88 -13 -66 55 -80 135 -28 75 50 84
60 77 89 -6 26 -39 46 -74 46 -9 0 -35 -9 -57 -19z"/>
        <path d="M1500 4347 c-171 -92 -180 -98 -180 -118 0 -25 85 -61 155 -66 71 -6
102 12 137 80 18 36 40 178 27 177 -2 -1 -65 -33 -139 -73z"/>
        <path d="M4700 4369 c-70 -24 -276 -127 -291 -145 -16 -19 -1 -54 24 -54 34 0
302 69 378 97 38 14 69 29 69 34 0 5 -16 27 -36 49 -42 46 -60 49 -144 19z"/>
        <path d="M247 4321 c-48 -44 -117 -155 -117 -187 0 -47 29 -32 109 56 45 49
88 101 95 116 34 64 -23 74 -87 15z"/>
        <path d="M350 4250 c-16 -32 -34 -61 -40 -65 -15 -9 -12 -35 4 -35 21 0 90 59
103 88 12 29 3 56 -22 66 -11 4 -23 -11 -45 -54z"/>
        <path d="M2652 4258 c-25 -25 -10 -53 79 -142 99 -99 121 -132 139 -219 11
-53 29 -77 58 -77 21 0 62 54 62 81 0 37 -105 267 -137 301 -53 55 -169 88
-201 56z"/>
        <path d="M5005 4246 c-170 -36 -308 -89 -362 -139 -39 -36 -29 -40 80 -34 102
5 218 29 335 69 l62 22 0 53 c0 29 -1 53 -2 52 -2 0 -52 -11 -113 -23z"/>
        <path d="M0 4199 c0 -32 3 -59 7 -59 3 0 28 14 55 32 49 31 49 31 30 50 -10
11 -35 23 -55 28 l-37 8 0 -59z"/>
        <path d="M1640 4178 c-56 -34 -100 -87 -100 -120 0 -18 2 -17 40 4 82 46 135
93 135 118 0 34 -14 34 -75 -2z"/>
        <path d="M4260 4175 c-36 -18 -81 -48 -100 -65 l-35 -31 43 6 c51 7 161 54
181 78 15 19 8 47 -11 47 -7 -1 -42 -16 -78 -35z"/>
        <path d="M1156 4110 c-114 -71 -210 -140 -203 -147 9 -8 119 27 182 59 67 34
112 69 137 107 41 61 5 55 -116 -19z"/>
        <path d="M3176 4139 c-42 -37 -44 -51 -12 -122 30 -67 43 -77 57 -40 15 40 17
185 2 190 -6 2 -27 -10 -47 -28z"/>
        <path d="M2470 4145 c0 -8 7 -15 15 -15 8 0 15 7 15 15 0 8 -7 15 -15 15 -8 0
-15 -7 -15 -15z"/>
        <path d="M3006 4113 c-7 -17 39 -191 54 -207 14 -14 31 69 24 116 -9 61 -33
108 -54 108 -10 0 -21 -7 -24 -17z"/>
        <path d="M3528 4051 c-86 -43 -178 -94 -205 -114 -107 -79 -166 -213 -101
-230 34 -9 65 9 226 129 198 150 275 223 270 261 -2 15 -10 29 -18 30 -8 1
-86 -33 -172 -76z"/>
        <path d="M870 4106 c-18 -22 -5 -48 22 -44 17 2 23 10 23 28 0 29 -26 38 -45
16z"/>
        <path d="M1330 4092 c-25 -20 -20 -42 9 -42 20 0 51 30 51 48 0 18 -35 14 -60
-6z"/>
        <path d="M1825 4091 c-124 -36 -362 -152 -495 -239 -162 -107 -319 -297 -290
-352 16 -29 33 -25 92 23 49 40 53 46 54 88 0 55 10 74 71 130 61 58 150 109
366 213 176 85 304 156 277 155 -8 0 -42 -8 -75 -18z"/>
        <path d="M2115 4099 c-84 -14 -198 -55 -363 -132 -321 -148 -415 -224 -537
-431 -53 -89 -83 -129 -123 -162 -30 -24 -51 -44 -46 -44 11 0 82 60 201 171
205 191 271 231 421 253 51 8 110 24 138 38 89 45 373 238 379 258 5 15 -9 63
-18 59 -1 -1 -24 -5 -52 -10z"/>
        <path d="M4424 4078 c-92 -68 -222 -220 -260 -303 -15 -30 -24 -69 -24 -98 0
-81 52 -157 107 -157 19 0 25 10 43 68 47 154 98 255 195 383 30 40 55 80 55
89 0 43 -68 54 -116 18z"/>
        <path d="M3915 4070 c-27 -30 -7 -70 35 -70 42 0 62 40 35 70 -10 11 -26 20
-35 20 -9 0 -25 -9 -35 -20z"/>
        <path d="M0 4019 c0 -53 2 -60 15 -49 26 21 57 80 51 95 -3 9 -18 15 -36 15
l-30 0 0 -61z"/>
        <path d="M2565 4066 c-48 -21 -85 -71 -85 -114 1 -73 66 -180 131 -213 68 -34
148 -17 182 40 71 121 -104 342 -228 287z"/>
        <path d="M4642 4029 c-132 -65 -243 -275 -241 -454 l1 -60 18 69 c27 100 77
194 132 248 26 25 88 70 138 99 50 28 93 56 97 62 10 16 -45 57 -75 57 -15 0
-46 -10 -70 -21z"/>
        <path d="M2250 4012 c-123 -53 -385 -231 -502 -341 -125 -117 -166 -191 -112
-199 17 -2 32 12 68 66 25 39 73 92 107 120 114 93 296 191 404 216 30 7 -53
-54 -307 -226 -131 -90 -149 -118 -106 -173 20 -26 25 -27 76 -22 96 10 248
123 385 286 121 144 163 231 133 276 -22 33 -63 32 -146 -3z"/>
        <path d="M4235 4002 c-36 -43 -89 -132 -83 -138 5 -4 117 143 125 164 10 24
-13 11 -42 -26z"/>
        <path d="M5104 4029 c-3 -6 -1 -16 5 -22 8 -8 11 -5 11 11 0 24 -5 28 -16 11z"/>
        <path d="M540 3877 c-129 -73 -266 -155 -305 -182 -89 -64 -185 -154 -164
-155 21 0 223 121 329 198 47 34 138 89 203 123 121 62 187 110 187 135 0 8
-3 14 -7 14 -5 0 -114 -60 -243 -133z"/>
        <path d="M1180 3984 c0 -17 22 -14 28 4 2 7 -3 12 -12 12 -9 0 -16 -7 -16 -16z"/>
        <path d="M4032 3980 c-18 -11 -81 -55 -140 -99 -60 -43 -180 -126 -268 -184
-164 -107 -200 -142 -189 -178 30 -92 254 4 477 204 123 111 210 214 206 247
-4 33 -42 37 -86 10z"/>
        <path d="M3757 3954 l-28 -34 49 0 c56 0 65 5 51 31 -20 39 -43 40 -72 3z"/>
        <path d="M86 3965 c-19 -20 -20 -29 -3 -44 18 -15 50 9 46 34 -5 25 -23 29
-43 10z"/>
        <path d="M4881 3964 c-225 -60 -393 -265 -486 -593 -56 -198 -119 -312 -241
-437 -30 -31 -54 -60 -54 -66 0 -18 92 57 173 142 98 103 137 165 187 305 47
129 57 143 190 280 59 61 122 136 140 167 33 59 81 108 106 108 20 0 18 -10
-19 -71 -44 -74 -92 -134 -210 -265 -106 -119 -157 -204 -157 -266 0 -21 2
-38 5 -38 5 0 144 114 334 275 58 50 143 117 189 150 l82 59 0 53 c0 53 0 53
-31 53 -25 0 -30 3 -26 18 30 91 31 101 12 122 -15 16 -30 20 -79 19 -34 0
-85 -7 -115 -15z"/>
        <path d="M889 3930 c-97 -15 -245 -87 -384 -185 -100 -71 -183 -171 -160 -193
9 -9 79 31 235 131 156 102 218 132 304 152 77 18 119 13 140 -17 14 -19 15
-18 50 17 40 40 46 69 16 85 -28 15 -135 20 -201 10z"/>
        <path d="M140 3857 l-135 -53 -3 -62 c-2 -40 1 -62 8 -62 26 0 141 45 210 82
114 60 151 103 118 136 -21 21 -59 13 -198 -41z"/>
        <path d="M3155 3843 c-14 -21 -25 -42 -25 -47 0 -12 37 22 62 57 16 22 17 27
4 27 -8 0 -27 -17 -41 -37z"/>
        <path d="M3597 3842 c-44 -48 -73 -122 -46 -122 13 0 91 53 107 73 10 11 10
21 1 40 -17 37 -33 39 -62 9z"/>
        <path d="M2976 3790 c-65 -100 -86 -145 -86 -183 0 -63 39 -74 94 -27 43 38
82 104 91 153 9 44 -18 127 -40 127 -8 0 -34 -31 -59 -70z"/>
        <path d="M895 3798 c-16 -6 -68 -34 -115 -61 -47 -27 -159 -91 -250 -141 -204
-114 -210 -118 -210 -133 0 -7 10 -13 23 -13 40 0 411 78 452 96 95 39 161
121 172 213 6 49 5 51 -18 50 -13 0 -37 -5 -54 -11z"/>
        <path d="M3929 3662 c-81 -82 -112 -132 -139 -222 -13 -46 -22 -58 -54 -75
-50 -27 -59 -45 -44 -91 15 -43 61 -80 115 -90 85 -16 178 51 209 150 16 51
16 57 1 98 -25 64 -22 145 8 224 42 112 11 114 -96 6z"/>
        <path d="M2414 3709 c-37 -10 -84 -52 -84 -74 0 -25 60 -18 117 15 59 34 71
49 52 61 -17 11 -44 10 -85 -2z"/>
        <path d="M3140 3700 c0 -13 5 -20 13 -17 6 2 12 10 12 17 0 7 -6 15 -12 18 -8
2 -13 -5 -13 -18z"/>
        <path d="M3395 3680 c-9 -29 10 -48 33 -34 24 16 22 48 -5 52 -15 2 -23 -3
-28 -18z"/>
        <path d="M1650 3655 c0 -9 5 -15 11 -13 6 2 11 8 11 13 0 5 -5 11 -11 13 -6 2
-11 -4 -11 -13z"/>
        <path d="M2754 3636 c-45 -39 -42 -50 11 -40 37 7 58 34 48 62 -8 18 -16 15
-59 -22z"/>
        <path d="M5063 3584 c-53 -23 -64 -39 -41 -62 17 -17 87 -15 94 2 3 8 4 30 2
49 l-3 35 -52 -24z"/>
        <path d="M3104 3589 c-3 -6 -1 -16 5 -22 13 -13 42 0 49 21 5 15 -44 16 -54 1z"/>
        <path d="M7 3584 c-10 -10 -9 -84 1 -84 23 0 43 28 40 55 -3 28 -26 44 -41 29z"/>
        <path d="M2360 3545 c-262 -68 -379 -116 -517 -214 -99 -70 -193 -192 -193
-251 0 -30 15 -25 77 25 113 92 349 212 573 290 74 26 152 56 172 66 93 47
146 130 81 128 -16 -1 -102 -20 -193 -44z"/>
        <path d="M1430 3534 c-83 -39 -176 -100 -320 -208 -86 -65 -97 -71 -123 -62
-36 13 -87 -9 -274 -116 -137 -79 -184 -115 -107 -83 60 25 148 45 262 59 97
12 114 18 177 56 117 72 156 100 249 183 48 43 114 95 145 114 31 19 66 42 78
49 23 14 22 44 -1 44 -6 0 -45 -16 -86 -36z"/>
        <path d="M3344 3545 c-40 -40 -154 -305 -131 -305 7 0 35 13 62 28 67 36 104
107 112 214 7 87 -4 102 -43 63z"/>
        <path d="M2651 3549 c-14 -5 -43 -25 -65 -43 -23 -18 -83 -61 -134 -95 -112
-77 -174 -143 -201 -217 -40 -106 -22 -171 42 -153 49 14 165 97 205 148 45
56 141 152 206 206 39 33 49 47 53 81 5 36 2 43 -22 62 -30 24 -47 26 -84 11z"/>
        <path d="M3261 3534 c-12 -15 -21 -36 -21 -47 0 -16 6 -13 30 19 16 21 30 42
30 47 0 15 -19 6 -39 -19z"/>
        <path d="M791 3470 c-40 -30 -54 -60 -27 -60 17 0 63 36 76 60 17 31 -5 31
-49 0z"/>
        <path d="M1413 3393 c-70 -58 -178 -139 -240 -180 -80 -52 -111 -77 -107 -88
14 -36 53 -14 161 86 87 82 180 164 322 285 2 2 2 4 -2 4 -3 0 -64 -48 -134
-107z"/>
        <path d="M4262 3435 c-50 -53 -62 -72 -68 -112 -9 -54 -9 -141 0 -150 9 -9 82
76 112 131 29 53 46 177 26 190 -5 3 -37 -23 -70 -59z"/>
        <path d="M885 3452 c-87 -43 -106 -59 -177 -149 -45 -57 -61 -104 -39 -117 5
-3 43 17 85 44 98 64 139 84 209 105 81 23 110 75 70 123 -32 37 -61 36 -148
-6z"/>
        <path d="M4097 3483 c-13 -13 -7 -51 9 -57 20 -8 44 11 44 34 0 23 -37 39 -53
23z"/>
        <path d="M4921 3465 c-65 -29 -321 -231 -366 -289 -56 -73 -18 -108 86 -82 73
19 140 55 254 136 44 31 113 76 153 99 l72 43 0 54 0 54 -82 0 c-50 -1 -96 -7
-117 -15z"/>
        <path d="M2842 3453 c-33 -16 -62 -57 -62 -88 0 -46 79 -70 147 -44 25 9 133
108 133 122 0 3 -14 10 -31 16 -47 16 -149 13 -187 -6z"/>
        <path d="M0 3386 l0 -74 37 19 c20 10 52 22 70 25 18 3 37 12 43 19 28 34 -42
85 -115 85 l-35 0 0 -74z"/>
        <path d="M3622 3448 c-18 -18 -15 -36 9 -48 26 -14 51 4 47 34 -3 24 -37 33
-56 14z"/>
        <path d="M3493 3433 c-3 -9 -1 -48 5 -87 21 -128 24 -200 12 -266 -12 -68 -62
-173 -106 -225 l-26 -30 6 36 c4 20 24 84 46 142 33 86 40 119 40 175 0 48 -4
73 -14 81 -9 7 -17 8 -20 2 -3 -5 -15 -69 -26 -143 -34 -226 -93 -312 -298
-440 -62 -38 -111 -72 -108 -75 2 -2 53 11 113 30 59 19 128 41 153 47 81 22
188 77 239 125 61 57 113 156 131 248 16 89 0 182 -50 285 -50 104 -82 135
-97 95z"/>
        <path d="M3146 3397 c-65 -36 -102 -77 -93 -101 8 -21 52 -47 68 -41 23 9 110
175 91 175 -4 0 -34 -15 -66 -33z"/>
        <path d="M1712 3404 c-26 -18 -31 -71 -7 -80 26 -10 65 6 77 31 9 21 8 28 -7
45 -22 24 -34 25 -63 4z"/>
        <path d="M578 3385 c-71 -29 -118 -62 -118 -81 0 -18 14 -18 103 2 76 16 117
46 117 85 0 26 -30 24 -102 -6z"/>
        <path d="M264 3365 c-4 -9 -2 -21 4 -27 15 -15 44 -1 40 19 -4 23 -36 29 -44
8z"/>
        <path d="M292 3266 c-100 -102 -261 -236 -284 -236 -4 0 -8 -49 -8 -110 0 -60
3 -110 6 -110 11 0 101 65 161 117 72 62 143 153 185 237 27 54 63 186 56 208
-2 5 -54 -43 -116 -106z"/>
        <path d="M1485 3332 c-154 -53 -295 -202 -295 -312 0 -49 18 -70 65 -77 103
-13 266 108 333 247 44 93 48 114 23 139 -25 25 -59 26 -126 3z"/>
        <path d="M4075 3318 c-2 -7 -11 -40 -20 -73 -25 -92 -125 -274 -239 -435 -148
-209 -286 -467 -286 -536 0 -60 38 -32 158 119 241 303 412 584 441 728 13 60
4 125 -25 180 -16 32 -23 36 -29 17z"/>
        <path d="M116 3288 c-44 -63 16 -120 72 -68 24 23 29 59 10 78 -20 20 -65 14
-82 -10z"/>
        <path d="M2675 3283 c-69 -36 -113 -100 -101 -147 13 -54 90 -32 219 62 l69
50 -44 26 c-51 30 -99 33 -143 9z"/>
        <path d="M5073 3235 c-74 -123 -153 -341 -153 -422 0 -49 22 -75 58 -71 39 5
64 51 106 196 34 122 36 137 34 248 l-3 119 -42 -70z"/>
        <path d="M484 3232 c-31 -20 -46 -108 -25 -141 8 -12 15 -10 43 11 82 63 112
117 72 132 -22 8 -77 7 -90 -2z"/>
        <path d="M2126 3219 c-51 -27 -160 -134 -152 -148 12 -19 61 -40 102 -43 l39
-3 42 85 c60 120 51 152 -31 109z"/>
        <path d="M2950 3214 c0 -9 5 -14 12 -12 18 6 21 28 4 28 -9 0 -16 -7 -16 -16z"/>
        <path d="M3015 3201 c-77 -45 -121 -93 -250 -265 -152 -204 -185 -259 -185
-308 0 -44 22 -93 45 -102 67 -25 111 12 131 111 32 156 145 321 320 464 76
62 87 84 58 113 -23 24 -63 19 -119 -13z"/>
        <path d="M3240 3166 c0 -10 9 -16 21 -16 24 0 21 23 -4 28 -10 2 -17 -3 -17
-12z"/>
        <path d="M2766 3119 c-29 -22 -35 -49 -11 -49 17 0 55 35 55 49 0 20 -19 20
-44 0z"/>
        <path d="M3701 3126 c-21 -25 -4 -58 27 -54 23 2 27 8 27 33 0 23 -5 31 -21
33 -11 2 -26 -4 -33 -12z"/>
        <path d="M4840 3064 c-107 -56 -117 -65 -102 -99 9 -18 19 -25 41 -25 23 0 40
12 80 56 50 55 90 115 74 113 -5 -1 -46 -21 -93 -45z"/>
        <path d="M330 3026 c-36 -42 -70 -88 -77 -104 -15 -33 -17 -89 -4 -97 16 -9
48 34 60 80 6 23 27 62 46 85 35 41 51 78 43 100 -2 6 -33 -23 -68 -64z"/>
        <path d="M1830 3070 c-14 -11 -20 -20 -13 -20 18 0 63 22 63 32 0 14 -24 8
-50 -12z"/>
        <path d="M3140 3059 c-111 -56 -246 -202 -271 -294 -8 -29 -7 -41 6 -61 22
-34 56 -31 145 12 179 86 300 209 300 307 0 73 -74 88 -180 36z"/>
        <path d="M1690 3033 c-56 -48 -140 -176 -140 -214 0 -22 5 -29 20 -29 33 0 92
75 149 187 50 100 42 116 -29 56z"/>
        <path d="M3766 3029 c-14 -17 -26 -37 -26 -45 0 -8 -16 -63 -35 -123 -19 -59
-35 -113 -35 -119 0 -26 16 -9 39 40 14 31 54 82 98 125 43 43 73 82 73 94 0
65 -68 83 -114 28z"/>
        <path d="M456 3008 c-31 -23 -56 -45 -56 -50 0 -10 115 66 125 82 13 21 -15 8
-69 -32z"/>
        <path d="M2365 3028 c-57 -29 -81 -53 -137 -138 -84 -129 -160 -300 -132 -300
5 0 49 36 99 81 49 44 114 95 144 113 50 29 58 37 74 86 9 30 27 76 38 102 12
25 19 54 16 62 -9 22 -54 19 -102 -6z"/>
        <path d="M1060 3021 c-12 -24 2 -61 23 -61 26 0 49 26 45 51 -4 33 -52 40 -68
10z"/>
        <path d="M2565 3030 c-52 -21 -98 -108 -117 -221 -21 -119 15 -161 85 -99 49
43 127 196 127 249 0 64 -40 94 -95 71z"/>
        <path d="M4376 3027 c-36 -26 4 -84 42 -61 23 15 26 38 7 58 -20 19 -26 20
-49 3z"/>
        <path d="M711 3019 c-59 -11 -162 -46 -236 -79 -81 -37 -125 -75 -125 -109 0
-37 17 -51 65 -51 70 0 275 42 415 85 25 7 71 21 103 30 50 14 57 19 57 41 0
67 -47 94 -157 93 -43 -1 -98 -5 -122 -10z"/>
        <path d="M1469 2972 c-62 -43 -73 -74 -39 -110 25 -27 56 -29 69 -4 10 19 33
143 27 149 -1 2 -27 -14 -57 -35z"/>
        <path d="M4667 3003 c-12 -11 -8 -23 8 -23 8 0 15 7 15 15 0 16 -12 20 -23 8z"/>
        <path d="M4512 2964 c4 -21 22 -23 26 -1 2 10 -3 17 -13 17 -10 0 -15 -6 -13
-16z"/>
        <path d="M1856 2954 c-63 -20 -118 -55 -171 -109 -52 -55 -73 -99 -55 -120 19
-23 48 -18 99 19 65 47 134 80 221 106 41 12 92 33 113 46 42 28 49 58 15 68
-42 11 -172 5 -222 -10z"/>
        <path d="M2150 2944 c0 -33 33 -30 38 4 3 17 -2 22 -17 22 -16 0 -21 -6 -21
-26z"/>
        <path d="M1025 2900 c-4 -7 -3 -16 3 -22 14 -14 65 -1 59 15 -5 16 -53 21 -62
7z"/>
        <path d="M3633 2878 c-36 -41 -52 -72 -67 -137 l-15 -63 26 23 c14 13 41 55
59 94 46 95 45 135 -3 83z"/>
        <path d="M4509 2851 c-32 -32 -39 -45 -39 -79 0 -37 32 -132 45 -132 3 0 35
27 70 60 35 33 68 60 72 60 5 0 26 -12 46 -26 42 -28 52 -27 43 8 -18 71 -104
148 -164 148 -27 0 -43 -9 -73 -39z"/>
        <path d="M4204 2842 c-58 -42 -111 -107 -147 -182 -30 -60 -32 -73 -32 -165 1
-89 4 -106 27 -152 32 -60 70 -93 108 -93 52 0 62 26 77 197 11 132 19 174 49
261 19 57 34 116 32 130 -5 41 -60 43 -114 4z"/>
        <path d="M4420 2845 c0 -14 5 -25 10 -25 6 0 10 11 10 25 0 14 -4 25 -10 25
-5 0 -10 -11 -10 -25z"/>
        <path d="M1250 2844 c-74 -20 -129 -54 -183 -114 -48 -53 -97 -160 -97 -211
l0 -32 58 6 c74 7 167 39 197 67 13 12 33 48 45 79 26 71 70 125 121 151 27
14 37 25 32 36 -13 35 -82 42 -173 18z"/>
        <path d="M4764 2843 c3 -10 10 -49 17 -88 6 -38 17 -73 23 -77 20 -14 83 -8
97 8 18 22 -9 70 -72 129 -50 47 -74 57 -65 28z"/>
        <path d="M1921 2799 c-45 -20 -103 -61 -158 -113 -37 -34 -41 -46 -15 -46 9 0
36 -9 59 -20 l42 -19 24 53 c13 28 37 67 53 86 49 58 55 68 47 73 -5 3 -28 -3
-52 -14z"/>
        <path d="M738 2779 c-44 -23 -61 -50 -61 -99 0 -45 25 -84 63 -100 132 -55
275 97 181 191 -26 26 -36 29 -88 29 -38 -1 -71 -8 -95 -21z"/>
        <path d="M2014 2747 c-36 -31 -91 -129 -96 -172 -2 -24 1 -30 17 -30 15 0 32
23 69 96 26 53 46 104 45 114 -4 16 -7 15 -35 -8z"/>
        <path d="M104 2743 c-29 -30 -52 -94 -73 -208 -21 -119 -36 -405 -21 -405 14
0 54 57 88 125 37 75 124 354 130 417 3 37 0 50 -17 67 -26 26 -83 28 -107 4z"/>
        <path d="M2318 2733 c-18 -15 -67 -58 -108 -96 -41 -38 -91 -78 -111 -89 -21
-11 -43 -31 -49 -44 -11 -20 -9 -27 14 -54 14 -17 26 -41 26 -52 0 -11 -36
-77 -79 -147 -94 -151 -111 -189 -111 -247 0 -46 17 -64 59 -64 54 0 131 118
231 355 38 90 76 153 186 309 35 50 44 99 24 137 -15 27 -43 24 -82 -8z"/>
        <path d="M1392 2700 c-53 -38 -82 -84 -82 -130 0 -43 15 -60 51 -60 42 0 71
31 78 81 5 39 11 46 49 67 33 18 42 29 40 46 -2 17 -11 22 -48 24 -38 2 -53
-2 -88 -28z"/>
        <path d="M493 2700 c-44 -20 -55 -44 -31 -68 21 -21 45 -13 77 23 55 63 35 82
-46 45z"/>
        <path d="M4331 2689 c-14 -39 -15 -179 -1 -179 5 0 32 24 60 53 60 62 67 102
24 136 -40 31 -70 27 -83 -10z"/>
        <path d="M5102 2698 c-17 -17 -15 -55 3 -62 12 -4 15 3 15 34 0 44 -1 45 -18
28z"/>
        <path d="M331 2676 c-22 -26 10 -63 43 -50 35 13 24 64 -14 64 -10 0 -23 -6
-29 -14z"/>
        <path d="M3610 2645 c0 -9 5 -15 11 -13 6 2 11 8 11 13 0 5 -5 11 -11 13 -6 2
-11 -4 -11 -13z"/>
        <path d="M1594 2632 c4 -7 -24 -59 -63 -118 -63 -95 -140 -259 -127 -271 2 -2
23 33 45 79 44 89 159 234 211 264 37 23 38 30 3 37 -16 3 -39 9 -52 13 -17 5
-22 4 -17 -4z"/>
        <path d="M4950 2622 c-41 -33 -6 -95 44 -76 21 8 32 52 19 73 -15 23 -37 24
-63 3z"/>
        <path d="M3211 2619 c-57 -11 -142 -59 -161 -92 -17 -30 -5 -94 22 -111 14 -8
29 1 85 55 37 35 89 82 116 103 26 21 46 40 45 41 -11 8 -70 11 -107 4z"/>
        <path d="M4630 2611 c-98 -31 -256 -127 -310 -187 l-25 -28 50 29 c28 16 126
64 220 106 93 43 171 82 173 88 5 16 -44 12 -108 -8z"/>
        <path d="M529 2580 c-68 -35 -152 -124 -197 -208 -18 -33 -50 -109 -72 -166
-42 -114 -64 -160 -55 -116 52 259 81 351 131 423 46 64 24 60 -24 -5 -58 -79
-87 -133 -122 -233 -35 -101 -101 -337 -95 -343 6 -6 187 84 251 126 79 51 96
77 143 214 21 62 55 159 75 216 20 57 36 108 36 113 0 14 -10 11 -71 -21z"/>
        <path d="M3446 2580 c-179 -67 -296 -165 -298 -251 -4 -147 323 9 407 194 43
94 21 105 -109 57z"/>
        <path d="M3910 2580 c0 -11 7 -20 15 -20 8 0 15 9 15 20 0 11 -7 20 -15 20 -8
0 -15 -9 -15 -20z"/>
        <path d="M1719 2552 c-60 -39 -169 -157 -213 -232 -20 -33 -50 -93 -66 -132
-49 -115 -119 -225 -231 -363 -31 -38 -59 -79 -63 -90 -6 -20 26 -85 42 -85
29 0 265 205 355 308 83 95 131 186 208 393 61 165 68 196 47 217 -18 18 -29
15 -79 -16z"/>
        <path d="M2433 2542 c-47 -31 -43 -52 10 -52 56 0 86 37 55 68 -16 16 -17 16
-65 -16z"/>
        <path d="M4596 2509 c-181 -91 -266 -154 -266 -195 0 -19 7 -18 76 10 109 44
397 179 434 204 3 2 -6 12 -19 23 -42 34 -93 25 -225 -42z"/>
        <path d="M2863 2539 c-23 -11 -48 -28 -55 -36 -12 -15 -8 -16 31 -9 54 8 101
32 101 51 0 21 -28 19 -77 -6z"/>
        <path d="M666 2516 c-28 -29 -82 -143 -73 -152 7 -8 142 75 160 98 23 31 16
61 -19 76 -34 16 -32 16 -68 -22z"/>
        <path d="M840 2462 c-32 -39 -83 -85 -120 -109 -159 -102 -190 -142 -235 -295
-30 -100 -30 -108 -7 -108 31 0 69 51 82 110 29 125 97 213 220 284 78 45 78
46 100 111 12 37 20 68 19 70 -2 1 -29 -27 -59 -63z"/>
        <path d="M1967 2472 c-25 -27 -57 -104 -56 -137 0 -28 0 -29 14 -11 18 23 69
155 63 162 -3 2 -12 -4 -21 -14z"/>
        <path d="M1147 2469 c-137 -32 -162 -109 -69 -212 61 -67 88 -111 104 -170 22
-84 33 -61 53 104 10 86 20 130 39 167 32 63 32 67 1 97 -26 27 -59 30 -128
14z"/>
        <path d="M5010 2449 c-83 -32 -160 -84 -187 -126 -10 -14 -17 -43 -17 -64 2
-47 48 -129 73 -129 10 0 68 46 129 103 l112 102 0 73 c0 86 1 85 -110 41z"/>
        <path d="M2640 2437 c-70 -29 -82 -31 -182 -29 -106 2 -107 2 -141 -28 -64
-55 -86 -145 -52 -210 34 -65 92 -46 262 83 117 89 203 178 203 209 0 11 -6
10 -90 -25z"/>
        <path d="M2855 2430 c-44 -22 -95 -60 -306 -231 -171 -137 -220 -171 -401
-274 -156 -88 -208 -128 -208 -157 0 -15 4 -18 18 -13 41 17 232 80 412 136
225 70 301 108 385 193 68 69 186 242 205 299 21 67 -25 87 -105 47z"/>
        <path d="M4740 2424 c-41 -18 -83 -56 -110 -99 -22 -36 -41 -113 -30 -120 11
-7 72 46 153 133 57 60 67 75 57 87 -15 18 -26 18 -70 -1z"/>
        <path d="M3686 2282 c-82 -75 -158 -149 -169 -164 -25 -33 -16 -74 18 -90 30
-14 48 -1 76 54 11 21 47 68 80 105 85 93 155 200 147 223 -2 5 -70 -53 -152
-128z"/>
        <path d="M3886 2391 c-10 -11 -20 -38 -23 -60 -5 -37 -3 -41 28 -60 52 -32 69
-28 69 17 0 39 -33 122 -48 122 -5 0 -17 -9 -26 -19z"/>
        <path d="M1816 2338 c-14 -24 -28 -63 -31 -88 -6 -42 -5 -44 9 -26 18 22 60
145 53 152 -3 3 -17 -14 -31 -38z"/>
        <path d="M760 2277 c-85 -67 -150 -144 -150 -178 0 -33 10 -36 46 -13 49 33
15 -11 -69 -88 -74 -67 -196 -222 -185 -234 8 -7 99 45 178 102 113 81 186
158 209 219 25 67 48 212 35 225 -6 6 -30 -6 -64 -33z"/>
        <path d="M3395 2275 c-39 -39 -45 -50 -45 -87 0 -49 36 -136 49 -122 5 5 24
58 41 117 44 148 33 171 -45 92z"/>
        <path d="M1310 2273 c-7 -16 -14 -57 -16 -93 l-4 -65 15 39 c15 40 32 146 23
146 -3 0 -11 -12 -18 -27z"/>
        <path d="M896 2263 c-24 -109 -69 -369 -73 -419 -6 -71 4 -97 50 -124 62 -38
127 -19 175 53 42 61 63 122 69 199 9 102 -10 141 -115 238 -47 44 -90 80 -93
80 -4 0 -10 -12 -13 -27z"/>
        <path d="M3997 2260 c-12 -58 -8 -135 9 -158 26 -38 74 -22 74 25 0 24 -39
117 -62 147 -14 18 -15 17 -21 -14z"/>
        <path d="M4412 2266 c-92 -25 -113 -39 -94 -58 21 -21 167 -23 197 -4 40 26
30 90 -13 85 -4 0 -44 -11 -90 -23z"/>
        <path d="M2984 2249 c-53 -15 -59 -31 -46 -110 7 -38 12 -103 12 -145 l0 -75
31 22 c46 32 136 147 155 195 21 56 13 88 -30 108 -37 18 -74 19 -122 5z"/>
        <path d="M3795 2203 c-62 -32 -124 -108 -150 -184 -33 -93 30 -103 147 -23 87
59 148 127 148 165 0 54 -79 77 -145 42z"/>
        <path d="M4107 2194 c-9 -9 4 -34 18 -34 14 0 27 25 18 34 -4 3 -12 6 -18 6
-6 0 -14 -3 -18 -6z"/>
        <path d="M1796 2145 c-38 -88 -69 -151 -96 -190 -29 -42 -31 -49 -28 -126 l3
-82 31 26 c60 51 107 200 102 322 -2 50 -6 64 -12 50z"/>
        <path d="M4633 2029 c-95 -101 -127 -143 -142 -184 -25 -67 -47 -182 -37 -192
10 -11 81 69 169 192 40 55 98 127 129 160 67 72 79 104 49 134 -12 12 -27 21
-34 21 -7 0 -67 -59 -134 -131z"/>
        <path d="M4365 2119 c-10 -30 18 -58 43 -43 9 6 17 22 17 35 0 34 -50 41 -60
8z"/>
        <path d="M4506 2119 c-29 -23 -34 -60 -10 -83 21 -22 56 -20 82 4 28 27 28 65
0 84 -29 21 -40 20 -72 -5z"/>
        <path d="M3181 2078 c-25 -29 -80 -87 -122 -129 -64 -66 -91 -85 -182 -128
-59 -28 -107 -55 -107 -61 0 -31 74 -13 202 50 96 48 314 195 334 226 26 39
-5 94 -54 94 -19 0 -38 -14 -71 -52z"/>
        <path d="M4200 2102 c-35 -17 -35 -18 -38 -90 -2 -45 1 -72 8 -72 5 0 10 4 10
9 0 6 25 37 56 70 59 65 67 94 24 98 -14 1 -41 -5 -60 -15z"/>
        <path d="M5098 2085 c-14 -34 -14 -42 -2 -54 20 -21 26 -9 22 45 l-3 49 -17
-40z"/>
        <path d="M2182 2058 c-18 -18 -15 -41 4 -34 9 3 18 6 20 6 2 0 4 9 4 20 0 23
-10 26 -28 8z"/>
        <path d="M4960 2007 c-19 -28 -36 -55 -38 -59 -2 -4 27 -42 65 -83 37 -42 68
-81 68 -87 0 -6 -12 -15 -26 -18 -44 -12 -105 -59 -126 -98 -37 -65 -65 -203
-45 -216 9 -5 170 111 229 164 l33 30 0 133 0 132 -36 55 c-39 58 -74 100 -83
100 -3 0 -22 -24 -41 -53z"/>
        <path d="M3905 1926 c-354 -215 -415 -261 -415 -308 0 -39 38 -54 99 -39 48
13 69 26 179 113 40 32 127 95 194 140 68 46 129 95 139 112 19 31 26 91 12
99 -5 2 -98 -50 -208 -117z"/>
        <path d="M365 2023 c-56 -30 -62 -63 -11 -63 29 0 36 5 50 34 9 19 16 37 16
40 0 10 -24 6 -55 -11z"/>
        <path d="M2806 2016 c-69 -15 -101 -45 -91 -85 12 -54 71 -73 162 -55 26 5 32
13 47 59 18 59 14 80 -17 89 -27 7 -29 7 -101 -8z"/>
        <path d="M4365 1996 c-91 -43 -167 -141 -210 -270 -37 -109 -34 -164 13 -239
33 -54 37 -69 41 -138 2 -51 -2 -96 -14 -134 -9 -31 -14 -59 -12 -62 6 -6 88
119 120 182 53 107 77 195 93 339 10 94 24 164 41 211 14 39 26 84 27 100 1
25 -3 30 -24 33 -14 1 -47 -9 -75 -22z"/>
        <path d="M3401 1981 c-12 -12 -21 -27 -21 -34 0 -18 21 -37 40 -37 23 0 62 45
58 67 -5 27 -52 29 -77 4z"/>
        <path d="M4777 1970 c-15 -12 -46 -51 -69 -88 -24 -37 -67 -102 -95 -145 -56
-82 -64 -111 -36 -121 27 -11 65 26 82 79 14 43 23 52 81 87 93 57 100 64 100
114 0 47 -14 94 -28 94 -5 0 -21 -9 -35 -20z"/>
        <path d="M1 1873 l1 -108 19 40 c23 50 25 137 3 159 -8 9 -17 16 -20 16 -2 0
-4 -48 -3 -107z"/>
        <path d="M740 1908 c-68 -61 -166 -121 -260 -157 -100 -39 -111 -53 -113 -136
-1 -38 2 -69 8 -71 6 -2 22 14 36 34 15 22 59 58 111 89 47 29 112 78 144 110
57 57 142 169 133 177 -2 2 -29 -19 -59 -46z"/>
        <path d="M3202 1870 c-29 -10 -69 -29 -90 -41 -86 -52 -152 -101 -148 -108 3
-5 29 -11 58 -14 138 -16 348 58 356 125 7 56 -76 74 -176 38z"/>
        <path d="M3495 1796 c-242 -119 -327 -175 -446 -295 -201 -203 -195 -262 12
-99 57 46 149 114 204 152 208 143 435 319 425 329 -3 3 -91 -36 -195 -87z"/>
        <path d="M284 1866 c-8 -22 3 -33 18 -18 9 9 9 15 0 24 -9 9 -13 7 -18 -6z"/>
        <path d="M1847 1815 c-42 -46 -83 -76 -155 -115 -209 -114 -244 -135 -309
-193 -84 -74 -105 -105 -29 -44 128 105 260 179 341 192 l40 7 -30 -22 c-16
-11 -68 -41 -115 -65 -166 -85 -418 -246 -419 -268 -1 -4 25 6 57 22 31 16
107 50 167 76 318 136 425 207 481 317 21 42 46 161 33 157 -2 -1 -30 -29 -62
-64z"/>
        <path d="M1509 1802 c-241 -152 -334 -256 -354 -394 -5 -34 -4 -48 5 -48 6 0
71 60 143 133 106 107 146 141 205 171 40 20 79 47 87 60 13 20 34 147 24 146
-2 -1 -52 -31 -110 -68z"/>
        <path d="M63 1828 c-36 -48 -63 -111 -63 -148 l0 -42 33 20 c17 10 58 29 89
42 74 30 111 60 103 82 -16 40 -140 75 -162 46z"/>
        <path d="M2415 1816 c-72 -31 -165 -180 -165 -263 0 -154 201 -78 295 111 39
77 31 122 -25 151 -35 18 -65 19 -105 1z"/>
        <path d="M2651 1807 c-17 -21 -41 -96 -41 -128 0 -24 4 -29 25 -29 38 0 82 26
89 53 8 33 -11 95 -34 107 -24 13 -25 13 -39 -3z"/>
        <path d="M4864 1786 c-16 -42 24 -83 52 -54 25 25 11 68 -22 68 -13 0 -27 -6
-30 -14z"/>
        <path d="M4025 1775 c-123 -37 -263 -141 -422 -313 -65 -70 -164 -172 -220
-228 -147 -145 -139 -169 39 -123 160 40 201 72 311 236 57 85 126 170 205
253 158 166 175 202 87 175z"/>
        <path d="M2112 1730 c-36 -22 -56 -63 -47 -97 5 -21 50 -53 75 -53 5 0 31 32
56 72 43 67 45 72 28 85 -26 19 -74 16 -112 -7z"/>
        <path d="M4749 1687 c-39 -84 -45 -124 -25 -170 35 -86 81 -12 81 132 0 119
-14 128 -56 38z"/>
        <path d="M200 1676 c-63 -46 -200 -228 -200 -266 l0 -22 37 23 c21 12 60 25
87 28 48 6 51 8 82 62 18 31 49 68 69 83 26 20 35 34 35 57 0 75 -39 87 -110
35z"/>
        <path d="M714 1670 c-23 -10 -45 -23 -49 -29 -10 -17 4 -50 26 -62 22 -12 66
11 108 55 20 21 22 28 11 41 -16 19 -45 18 -96 -5z"/>
        <path d="M2737 1636 c-74 -22 -127 -56 -127 -81 0 -19 29 -40 124 -89 97 -51
107 -51 132 9 16 40 28 137 19 164 -8 28 -46 27 -148 -3z"/>
        <path d="M2994 1615 c-18 -45 -29 -95 -20 -95 4 0 30 19 57 42 60 50 64 81 11
86 -29 3 -34 0 -48 -33z"/>
        <path d="M1055 1624 c-19 -20 -16 -43 8 -58 34 -22 73 27 47 59 -16 19 -35 19
-55 -1z"/>
        <path d="M1950 1619 c-83 -37 -97 -65 -59 -113 49 -62 116 -16 134 92 6 37 4
42 -12 42 -10 0 -38 -10 -63 -21z"/>
        <path d="M0 1610 c0 -5 5 -10 11 -10 5 0 7 5 4 10 -3 6 -8 10 -11 10 -2 0 -4
-4 -4 -10z"/>
        <path d="M906 1579 c-78 -40 -211 -174 -264 -264 -74 -126 -86 -178 -87 -360
l-1 -160 -57 -140 c-31 -77 -70 -193 -87 -258 -44 -172 -39 -212 20 -182 73
38 112 116 170 340 47 183 101 304 180 408 83 109 104 165 108 277 3 104 -9
145 -43 145 -24 0 -96 -116 -144 -228 -32 -75 -40 -67 -17 18 31 119 103 222
203 297 47 34 93 98 93 128 0 15 -9 12 -74 -21z"/>
        <path d="M473 1584 c-3 -8 -1 -20 6 -27 14 -14 47 15 37 32 -10 16 -36 13 -43
-5z"/>
        <path d="M4527 1559 c-10 -6 -33 -42 -53 -80 -59 -118 -153 -271 -202 -328
-25 -30 -80 -81 -122 -114 -94 -75 -91 -71 -50 -64 59 11 211 93 281 151 117
98 210 231 225 324 10 66 -38 134 -79 111z"/>
        <path d="M999 1497 c-56 -37 -63 -91 -17 -120 37 -24 118 31 118 79 0 26 -32
64 -54 64 -7 0 -28 -10 -47 -23z"/>
        <path d="M3989 1506 c-66 -23 -158 -98 -185 -148 -18 -35 -18 -85 1 -95 11 -7
-11 -26 -88 -76 -56 -37 -113 -76 -127 -88 l-25 -20 25 6 c14 4 87 36 162 73
76 36 141 62 145 58 15 -15 -83 -86 -196 -145 -111 -57 -114 -59 -90 -72 16
-9 60 -14 129 -14 99 0 109 2 173 34 134 65 238 207 239 324 1 75 -32 144 -78
163 -40 17 -39 17 -85 0z"/>
        <path d="M490 1480 c-79 -44 -82 -50 -75 -150 5 -68 2 -101 -14 -164 -42 -161
-19 -167 76 -18 154 237 185 309 153 347 -20 24 -80 18 -140 -15z"/>
        <path d="M1633 1450 c-164 -82 -238 -163 -231 -253 2 -28 8 -43 19 -45 8 -1
44 20 80 49 35 28 117 82 181 120 119 70 138 88 138 131 0 64 -58 63 -187 -2z"/>
        <path d="M2048 1483 c-9 -9 -61 -46 -115 -82 -90 -61 -101 -71 -130 -130 -17
-35 -35 -81 -38 -101 -4 -21 -26 -82 -50 -135 -34 -74 -42 -102 -34 -112 6 -7
17 -13 24 -13 17 0 132 123 187 201 43 60 188 351 188 377 0 17 -13 15 -32 -5z"/>
        <path d="M3283 1488 c-35 -9 -45 -28 -15 -28 20 0 60 26 52 33 -3 2 -20 0 -37
-5z"/>
        <path d="M259 1474 c-17 -21 0 -49 31 -49 31 0 48 28 31 49 -8 9 -21 16 -31
16 -10 0 -23 -7 -31 -16z"/>
        <path d="M2466 1469 c-34 -27 -34 -63 3 -121 43 -67 102 -119 189 -166 42 -22
99 -57 126 -76 27 -19 54 -32 59 -29 16 9 -3 95 -34 161 -57 118 -208 252
-285 252 -17 0 -43 -9 -58 -21z"/>
        <path d="M3275 1406 c-49 -18 -152 -62 -228 -99 -109 -52 -138 -70 -135 -84 6
-31 51 -38 145 -24 101 14 205 52 303 111 82 48 107 78 90 109 -16 30 -67 26
-175 -13z"/>
        <path d="M2250 1412 c-96 -51 -272 -377 -230 -427 19 -23 57 2 172 118 105
105 151 172 163 239 6 31 3 41 -19 62 -30 31 -40 32 -86 8z"/>
        <path d="M4714 1408 c-24 -26 -64 -89 -64 -101 0 -21 63 28 76 60 21 50 15 71
-12 41z"/>
        <path d="M4905 1388 c-11 -6 -63 -52 -115 -103 -86 -84 -99 -93 -143 -98 -52
-7 -119 -38 -155 -71 -57 -51 -70 -135 -28 -183 l25 -28 66 34 c170 87 387
256 425 332 47 90 2 160 -75 117z"/>
        <path d="M87 1350 c-9 -14 -33 -75 -52 -136 -30 -97 -35 -125 -35 -213 0 -56
4 -101 8 -101 24 0 102 62 109 87 9 31 7 138 -4 288 -8 99 -8 100 -26 75z"/>
        <path d="M5051 1252 c-34 -42 -58 -78 -53 -80 6 -2 36 13 66 34 54 35 56 39
56 80 0 24 -1 44 -2 43 -2 0 -32 -35 -67 -77z"/>
        <path d="M263 1295 c-40 -28 -57 -96 -57 -229 0 -102 4 -130 23 -178 12 -32
34 -67 49 -78 20 -16 26 -29 24 -53 -3 -37 48 -127 72 -127 21 0 45 35 90 127
29 59 37 87 32 107 -9 36 -35 34 -113 -9 -35 -19 -65 -35 -67 -35 -2 0 -6 43
-9 96 -6 107 3 186 35 288 16 49 19 73 11 85 -14 22 -63 25 -90 6z"/>
        <path d="M983 1298 c-26 -13 -34 -30 -23 -49 15 -23 64 1 68 34 4 29 -8 33
-45 15z"/>
        <path d="M1215 1249 c-75 -11 -163 -37 -189 -55 -31 -21 -7 -18 143 22 173 46
183 53 46 33z"/>
        <path d="M1566 1176 c-59 -44 -112 -74 -169 -94 -105 -39 -312 -137 -354 -169
-39 -29 -46 -70 -10 -58 34 11 144 32 228 44 42 6 102 20 133 32 72 27 170
100 212 159 32 45 70 150 54 150 -4 0 -47 -29 -94 -64z"/>
        <path d="M2395 1230 c-10 -17 12 -37 25 -24 8 8 6 15 -4 23 -10 9 -16 9 -21 1z"/>
        <path d="M3213 1193 c-28 -28 -29 -63 -4 -94 l19 -24 7 26 c3 14 5 45 3 70
l-3 44 -22 -22z"/>
        <path d="M2455 1154 c-94 -48 -146 -154 -175 -354 -6 -41 -13 -86 -16 -100 -5
-24 -4 -23 31 10 37 36 209 279 239 337 20 41 21 87 0 107 -20 20 -41 20 -79
0z"/>
        <path d="M1142 1145 c-58 -18 -82 -41 -82 -80 0 -61 43 -71 134 -31 61 27 83
55 66 86 -11 21 -41 40 -62 39 -7 0 -32 -6 -56 -14z"/>
        <path d="M940 1115 c-10 -12 -10 -18 0 -29 16 -20 42 -8 38 17 -4 26 -21 32
-38 12z"/>
        <path d="M2620 1114 c0 -44 197 -195 236 -180 49 19 12 77 -90 141 -85 53
-146 69 -146 39z"/>
        <path d="M1916 1050 c-60 -76 -147 -162 -204 -202 -86 -59 -265 -141 -429
-194 -169 -55 -193 -66 -193 -90 0 -26 64 -15 230 41 91 31 239 76 330 101 99
27 201 62 255 89 143 69 228 145 163 145 -13 0 -39 8 -58 18 -34 16 -35 19
-40 86 l-5 69 -49 -63z"/>
        <path d="M4987 1103 c-12 -11 -8 -23 8 -23 8 0 15 7 15 15 0 16 -12 20 -23 8z"/>
        <path d="M2952 1074 c-26 -18 -28 -32 -7 -41 18 -6 55 23 55 44 0 17 -20 17
-48 -3z"/>
        <path d="M2987 985 c-106 -105 -120 -132 -90 -173 39 -53 113 -32 168 47 37
55 54 106 55 169 0 44 -3 52 -18 52 -10 0 -62 -43 -115 -95z"/>
        <path d="M4831 1014 c-39 -31 -71 -61 -71 -66 0 -4 19 -5 43 -2 88 14 165 75
137 109 -20 24 -34 18 -109 -41z"/>
        <path d="M2203 1014 c-16 -26 -16 -27 6 -45 39 -31 85 6 61 50 -15 29 -46 26
-67 -5z"/>
        <path d="M895 1020 c-8 -13 72 -130 90 -130 16 0 28 36 23 70 -5 38 -97 86
-113 60z"/>
        <path d="M5072 963 c-58 -95 -93 -200 -99 -294 -7 -89 3 -169 20 -169 7 0 38
24 70 53 l58 52 -3 215 -3 215 -43 -72z"/>
        <path d="M3390 1009 c-84 -14 -128 -51 -76 -65 16 -4 52 7 107 31 46 20 86 39
88 41 7 6 -59 2 -119 -7z"/>
        <path d="M4301 999 c-37 -22 -39 -36 -7 -45 31 -7 66 11 66 35 0 28 -23 32
-59 10z"/>
        <path d="M2546 971 c-24 -26 -31 -91 -13 -115 13 -18 16 -18 62 -2 59 20 83
20 127 2 38 -16 62 -8 56 20 -4 24 -153 114 -188 114 -15 0 -35 -9 -44 -19z"/>
        <path d="M3539 948 c-8 -13 -23 -41 -34 -62 -31 -61 -97 -121 -174 -160 -39
-20 -75 -36 -81 -36 -5 0 35 41 90 91 110 99 125 129 66 129 -65 0 -316 -189
-316 -238 0 -29 45 -69 85 -75 114 -19 317 68 409 174 98 113 99 199 4 199
-26 0 -39 -6 -49 -22z"/>
        <path d="M3872 901 c-105 -48 -123 -66 -43 -41 73 22 133 52 139 68 6 18 -5
15 -96 -27z"/>
        <path d="M1540 914 c-25 -8 -107 -25 -182 -39 -169 -30 -207 -40 -284 -75 -57
-26 -89 -50 -65 -50 72 0 474 115 559 160 44 23 34 24 -28 4z"/>
        <path d="M3128 852 c-31 -42 -55 -79 -52 -81 6 -7 145 91 154 109 11 20 -6 50
-28 50 -10 0 -42 -34 -74 -78z"/>
        <path d="M828 898 c-22 -17 -118 -186 -124 -218 -7 -33 29 -80 61 -80 38 0 83
46 119 123 47 99 54 139 27 166 -24 24 -59 27 -83 9z"/>
        <path d="M2161 865 c-26 -29 -40 -52 -37 -61 3 -9 6 -18 6 -20 0 -2 6 -4 14
-4 21 0 88 86 84 106 -6 31 -24 25 -67 -21z"/>
        <path d="M4804 859 c-3 -6 1 -18 10 -27 15 -15 17 -15 32 0 19 19 11 38 -16
38 -10 0 -22 -5 -26 -11z"/>
        <path d="M13 843 c-9 -3 -13 -28 -12 -81 l1 -77 15 35 c19 42 29 115 17 122
-5 3 -15 3 -21 1z"/>
        <path d="M133 843 c-7 -2 -13 -16 -13 -30 0 -20 4 -24 23 -21 16 2 22 10 22
27 0 25 -11 33 -32 24z"/>
        <path d="M4040 833 c-33 -6 -47 -20 -34 -33 13 -13 88 16 79 30 -3 6 -9 9 -13
9 -4 -1 -18 -4 -32 -6z"/>
        <path d="M4320 821 c-125 -19 -271 -63 -292 -88 -11 -14 -10 -15 7 -10 11 3
61 17 110 31 99 28 199 46 259 46 l38 0 -6 -35 c-5 -23 -3 -35 4 -35 19 0 210
82 210 90 0 25 -162 26 -330 1z"/>
        <path d="M1325 769 c-88 -26 -197 -58 -242 -70 -79 -20 -124 -41 -113 -53 11
-11 261 54 362 94 99 39 184 80 163 78 -5 0 -82 -22 -170 -49z"/>
        <path d="M3822 794 c-107 -28 -204 -76 -254 -124 -35 -34 -47 -52 -42 -64 5
-13 14 -16 33 -13 47 9 319 105 345 122 32 21 36 69 7 85 -24 12 -23 12 -89
-6z"/>
        <path d="M2492 780 c-23 -22 -29 -54 -11 -65 11 -7 89 40 89 53 0 14 -23 32
-40 32 -9 0 -26 -9 -38 -20z"/>
        <path d="M1985 751 c-33 -15 -148 -77 -255 -136 -395 -218 -446 -246 -514
-272 -72 -28 -86 -43 -66 -68 24 -29 196 -15 370 30 85 22 236 93 314 149 143
102 289 311 226 323 -8 2 -42 -10 -75 -26z"/>
        <path d="M4884 769 c-4 -7 -9 -64 -11 -128 -3 -85 0 -128 10 -161 14 -43 15
-39 16 128 1 94 -1 172 -3 172 -3 0 -8 -5 -12 -11z"/>
        <path d="M4735 738 c-45 -26 -130 -106 -185 -174 -77 -96 -120 -185 -127 -262
-5 -58 -4 -62 25 -91 41 -41 88 -41 171 0 130 65 197 223 189 449 -3 82 -4 85
-28 87 -14 2 -34 -2 -45 -9z"/>
        <path d="M2573 729 c-47 -14 -83 -62 -83 -111 0 -32 7 -47 34 -74 29 -29 41
-34 80 -34 41 0 51 5 88 43 82 84 97 131 52 166 -29 23 -110 28 -171 10z"/>
        <path d="M2128 699 c-56 -91 -102 -159 -119 -175 -34 -31 -61 -82 -54 -104 19
-61 123 20 167 131 33 81 43 132 30 155 -9 16 -11 15 -24 -7z"/>
        <path d="M4134 691 c-70 -33 -109 -77 -130 -147 -15 -51 -7 -74 27 -74 28 0
230 141 240 168 6 15 5 31 -2 45 -25 46 -51 48 -135 8z"/>
        <path d="M2924 686 c-67 -31 -243 -201 -373 -361 -58 -71 -143 -170 -188 -220
-46 -49 -83 -93 -83 -97 0 -5 37 -8 83 -8 l82 0 115 85 c140 105 159 122 225
210 61 82 96 116 185 182 52 39 68 57 79 91 18 58 0 110 -45 128 -27 11 -37
10 -80 -10z"/>
        <path d="M139 679 c-11 -11 -34 -50 -50 -86 -16 -36 -43 -82 -59 -103 -26 -33
-30 -46 -30 -99 0 -34 3 -61 6 -61 34 0 152 151 183 235 12 31 21 74 21 95 0
36 -3 40 -25 40 -14 0 -34 -9 -46 -21z"/>
        <path d="M1615 651 c-327 -88 -392 -116 -349 -152 21 -18 110 1 212 45 125 55
308 145 292 145 -8 0 -78 -18 -155 -38z"/>
        <path d="M2340 647 c-90 -72 -181 -176 -254 -292 -38 -61 -87 -132 -109 -158
-21 -27 -38 -49 -36 -51 9 -7 187 17 215 29 48 20 201 219 242 315 10 25 22
80 26 123 6 70 5 77 -11 77 -10 0 -43 -20 -73 -43z"/>
        <path d="M3922 646 c-106 -78 -169 -272 -139 -428 9 -46 26 -52 65 -25 54 38
74 87 83 206 4 58 13 129 19 158 6 28 10 66 8 83 l-3 31 -33 -25z"/>
        <path d="M4480 620 c-25 -17 -83 -54 -130 -82 -131 -79 -163 -116 -125 -148
32 -27 141 43 232 149 99 116 104 136 23 81z"/>
        <path d="M3645 575 c-5 -2 -48 -15 -95 -29 -47 -14 -92 -30 -100 -35 -23 -16
34 -33 125 -38 72 -4 82 -3 103 16 14 15 22 33 22 56 0 30 -3 35 -22 34 -13 0
-27 -2 -33 -4z"/>
        <path d="M885 552 c-17 -10 -61 -60 -97 -109 -58 -78 -115 -133 -203 -198 -20
-14 -19 -14 5 -15 45 0 161 29 216 54 102 47 166 114 198 205 13 40 13 43 -8
56 -38 25 -78 27 -111 7z"/>
        <path d="M319 513 c-17 -27 -52 -93 -78 -148 -120 -250 -151 -317 -157 -340
l-6 -25 106 0 106 0 -6 53 c-4 38 -2 63 10 92 39 92 92 348 82 390 -9 36 -23
31 -57 -22z"/>
        <path d="M651 508 c-10 -27 3 -48 30 -48 25 0 44 37 28 56 -17 21 -49 17 -58
-8z"/>
        <path d="M3205 495 c-51 -18 -68 -40 -95 -119 -24 -74 -59 -132 -123 -202 -26
-29 -47 -55 -47 -59 0 -4 26 -6 58 -3 73 5 176 53 290 135 143 103 172 130
172 163 0 78 -141 125 -255 85z"/>
        <path d="M1084 486 c-11 -28 4 -48 33 -44 22 2 28 8 28 28 0 20 -6 26 -28 28
-18 2 -29 -2 -33 -12z"/>
        <path d="M2445 416 c-90 -94 -254 -303 -262 -334 -7 -31 9 -46 41 -38 25 6
177 169 291 311 44 55 55 76 53 100 -2 23 -9 31 -27 33 -19 3 -39 -12 -96 -72z"/>
        <path d="M5062 450 c-59 -36 -64 -111 -8 -126 53 -13 61 -5 64 74 3 81 -1 85
-56 52z"/>
        <path d="M2880 304 c-74 -74 -184 -172 -244 -217 l-108 -82 71 -3 71 -3 67 55
c83 66 185 171 245 251 63 85 72 103 57 121 -6 8 -14 14 -18 14 -3 0 -67 -61
-141 -136z"/>
        <path d="M4055 405 c-5 -2 -22 -6 -37 -9 -28 -6 -37 -29 -18 -41 9 -5 100 41
100 51 0 5 -30 4 -45 -1z"/>
        <path d="M1765 366 c-26 -40 -11 -72 43 -92 26 -9 57 -20 69 -24 28 -11 46 9
38 43 -4 13 -20 41 -36 61 -38 45 -89 51 -114 12z"/>
        <path d="M3647 358 c-21 -11 -22 -49 -2 -115 31 -103 72 -88 61 22 -10 95 -22
114 -59 93z"/>
        <path d="M4820 334 c0 -9 5 -14 12 -12 18 6 21 28 4 28 -9 0 -16 -7 -16 -16z"/>
        <path d="M4025 273 c-44 -36 -104 -81 -133 -101 -29 -19 -51 -40 -49 -46 2 -6
25 -11 51 -10 41 0 52 5 92 45 25 24 66 72 90 105 70 97 60 99 -51 7z"/>
        <path d="M900 300 c-11 -11 -20 -24 -20 -29 0 -18 32 -41 57 -41 30 0 93 36
93 54 0 40 -95 51 -130 16z"/>
        <path d="M3483 303 c-25 -9 -12 -39 32 -76 43 -36 44 -37 55 -16 10 17 7 27
-14 60 -25 36 -43 45 -73 32z"/>
        <path d="M4906 258 c-63 -101 -71 -132 -36 -143 25 -8 67 15 112 62 52 54 63
88 38 113 -11 11 -33 20 -50 20 -26 0 -35 -8 -64 -52z"/>
        <path d="M4155 263 c-41 -41 -58 -79 -45 -102 9 -18 66 -36 138 -43 20 -3 16
-8 -32 -43 -56 -41 -78 -75 -48 -75 29 0 227 123 230 144 3 16 -1 18 -26 14
-29 -4 -31 -2 -41 38 -22 86 -119 123 -176 67z"/>
        <path d="M0 165 c1 -82 3 -96 13 -80 16 27 16 150 0 166 -11 10 -13 -7 -13
-86z"/>
        <path d="M1612 233 c-30 -14 -71 -27 -92 -30 -64 -9 -62 -71 3 -98 54 -22 141
-34 181 -25 80 18 112 94 65 154 -27 34 -84 34 -157 -1z"/>
        <path d="M95 220 c-4 -7 -3 -16 3 -22 14 -14 45 -2 40 15 -6 16 -34 21 -43 7z"/>
        <path d="M4702 187 c-69 -57 -106 -109 -97 -136 8 -26 28 -26 80 -2 83 37 143
120 118 160 -18 29 -47 22 -101 -22z"/>
        <path d="M775 191 c-9 -16 3 -31 26 -31 14 0 19 6 17 17 -4 20 -33 29 -43 14z"/>
        <path d="M5067 146 c-26 -30 -47 -57 -47 -60 0 -3 9 -10 20 -16 15 -8 27 -7
50 5 28 14 30 20 30 70 0 30 -1 55 -3 55 -2 0 -24 -24 -50 -54z"/>
        <path d="M3279 166 c-72 -29 -117 -57 -153 -95 -23 -24 -38 -31 -68 -31 -27 0
-40 -5 -48 -20 -11 -20 -8 -20 290 -20 343 0 325 -6 268 90 -60 98 -167 127
-289 76z"/>
        <path d="M982 166 c-74 -18 -143 -64 -165 -108 -10 -21 -16 -42 -12 -48 4 -6
83 -10 213 -10 l207 0 48 30 c101 64 84 112 -49 135 -96 17 -172 17 -242 1z"/>
        <path d="M464 155 c-17 -11 -84 -132 -84 -150 0 -3 33 -5 74 -5 l74 0 11 31
c15 45 14 91 -5 117 -18 26 -41 28 -70 7z"/>
        <path d="M337 124 c-10 -10 -9 -42 2 -48 18 -11 42 6 39 28 -3 21 -28 33 -41
20z"/>
        <path d="M3622 104 c1 -9 9 -19 16 -22 9 -3 13 2 10 14 -1 9 -9 19 -16 22 -9
3 -13 -2 -10 -14z"/>
        <path d="M3983 104 c-3 -8 -1 -20 4 -25 14 -14 43 0 43 22 0 24 -38 26 -47 3z"/>
        <path d="M3674 85 c-15 -11 -16 -14 -3 -15 8 0 24 7 35 15 15 11 16 14 3 15
-8 0 -24 -7 -35 -15z"/>
        <path d="M2019 70 c-20 -5 -63 -22 -95 -37 l-59 -28 93 -3 c89 -3 95 -1 125
24 18 15 32 32 32 38 0 14 -49 17 -96 6z"/>
        <path d="M4765 52 c-16 -11 -36 -26 -44 -35 -12 -16 -7 -17 63 -17 73 0 76 1
76 23 0 48 -43 61 -95 29z"/>
        <path d="M2894 38 c-46 -34 -49 -38 -31 -38 18 0 89 59 71 60 -6 0 -24 -10
-40 -22z"/>
        <path d="M4044 15 c-18 -13 -15 -14 29 -15 35 0 47 4 47 15 0 20 -50 20 -76 0z"/>
        <path d="M625 10 c-3 -5 3 -10 14 -10 12 0 21 5 21 10 0 6 -6 10 -14 10 -8 0
-18 -4 -21 -10z"/>
        <path d="M1460 10 c-10 -7 6 -10 55 -10 49 0 65 3 55 10 -19 13 -91 13 -110 0z"/>
        <path d="M3780 10 c-11 -7 4 -10 48 -10 40 0 61 4 57 10 -8 13 -85 13 -105 0z"/>
        <path d="M4475 10 c-4 -6 8 -10 30 -10 22 0 34 4 30 10 -8 13 -52 13 -60 0z"/>
        <path d="M4965 10 c-4 -6 10 -10 35 -10 25 0 39 4 35 10 -3 6 -19 10 -35 10
-16 0 -32 -4 -35 -10z"/>
        <path d="M738 3 c7 -3 16 -2 19 1 4 3 -2 6 -13 5 -11 0 -14 -3 -6 -6z"/>
    </g>
</svg>